<svg xmlns="http://www.w3.org/2000/svg" width="1200" height="675" viewBox="0 0 1200 675"><defs><linearGradient id="bg" x1="0" y1="0" x2="1" y2="1"><stop stop-color="#14100d"/><stop offset="1" stop-color="#2b1a0c"/></linearGradient><pattern id="g" width="44" height="44" patternUnits="userSpaceOnUse"><path d="M44 0H0V44" fill="none" stroke="#fdba74" stroke-opacity=".05"/></pattern></defs><rect width="1200" height="675" rx="28" fill="url(#bg)"/><rect width="1200" height="675" rx="28" fill="url(#g)"/><g font-family="Inter, Pretendard, Apple SD Gothic Neo, sans-serif"><text x="70" y="92" fill="#fdba74" font-size="25" font-weight="700" letter-spacing="3">HOMESERVER LAB · 06</text><text x="70" y="170" fill="#fff" font-size="55" font-weight="800">Argo CD Web Terminal</text><text x="70" y="232" fill="#fff" font-size="55" font-weight="800">검은 화면의 원인을 RBAC까지</text><text x="70" y="548" fill="#94a3b8" font-size="23">회고 · 홈서버에서 Kubernetes까지</text><text x="70" y="600" fill="#e2e8f0" font-size="22">Terminal · ServiceAccount · RBAC</text></g><g transform="translate(790 205)" font-family="ui-monospace, SFMono-Regular, monospace"><rect x="0" y="0" width="365" height="250" rx="22" fill="#0b0f14" stroke="#fb923c" stroke-width="5"/><circle cx="30" cy="28" r="8" fill="#ef4444"/><circle cx="55" cy="28" r="8" fill="#f59e0b"/><circle cx="80" cy="28" r="8" fill="#22c55e"/><text x="30" y="90" fill="#fdba74" font-size="25">$ kubectl auth can-i</text><text x="30" y="132" fill="#e5e7eb" font-size="22">create pods/exec</text><text x="30" y="178" fill="#4ade80" font-size="26" font-weight="700">yes</text><rect x="250" y="145" width="70" height="58" rx="10" fill="#fb923c" opacity=".18" stroke="#fdba74" stroke-width="4"/><path d="M267 145v-18c0-34 38-34 38 0v18" fill="none" stroke="#fdba74" stroke-width="6"/></g></svg>